<svg width="22" height="22" viewBox="0 0 22 22" fill="none" xmlns="http://www.w3.org/2000/svg">
<path d="M0.890807 2.77779L0.890841 2.77782L9.11461 11L0.890841 19.2222L0.890805 19.2222C0.766905 19.3461 0.668622 19.4932 0.601568 19.6551C0.534513 19.817 0.5 19.9905 0.5 20.1657C0.5 20.3409 0.534512 20.5144 0.601568 20.6763C0.668622 20.8382 0.766905 20.9853 0.890805 21.1092C1.01471 21.2331 1.1618 21.3314 1.32368 21.3984C1.48557 21.4655 1.65908 21.5 1.8343 21.5C2.00952 21.5 2.18303 21.4655 2.34491 21.3984C2.50679 21.3314 2.65389 21.2331 2.77779 21.1092L2.77782 21.1092L11 12.8854L19.2222 21.1092L19.2222 21.1092C19.3461 21.2331 19.4932 21.3314 19.6551 21.3984C19.817 21.4655 19.9905 21.5 20.1657 21.5C20.3409 21.5 20.5144 21.4655 20.6763 21.3984C20.8382 21.3314 20.9853 21.2331 21.1092 21.1092C21.2331 20.9853 21.3314 20.8382 21.3984 20.6763C21.4655 20.5144 21.5 20.3409 21.5 20.1657C21.5 19.9905 21.4655 19.817 21.3984 19.6551C21.3314 19.4932 21.2331 19.3461 21.1092 19.2222L21.1092 19.2222L12.8854 11L21.1092 2.77782L21.1092 2.77779C21.2331 2.65389 21.3314 2.50679 21.3984 2.34491C21.4655 2.18303 21.5 2.00952 21.5 1.8343C21.5 1.65908 21.4655 1.48557 21.3984 1.32368C21.3314 1.1618 21.2331 1.01471 21.1092 0.890805C20.9853 0.766905 20.8382 0.668622 20.6763 0.601568C20.5144 0.534512 20.3409 0.5 20.1657 0.5C19.9905 0.5 19.817 0.534513 19.6551 0.601568C19.4932 0.668622 19.3461 0.766905 19.2222 0.890805L19.2222 0.890841L11 9.11461L2.77782 0.890841L2.77779 0.890807C2.65389 0.766905 2.5068 0.668622 2.34491 0.601568C2.18303 0.534513 2.00952 0.5 1.8343 0.5C1.65908 0.5 1.48557 0.534513 1.32368 0.601567C1.1618 0.668622 1.01471 0.766905 0.890807 0.890807C0.766905 1.01471 0.668622 1.1618 0.601567 1.32368C0.534513 1.48557 0.5 1.65908 0.5 1.8343C0.5 2.00952 0.534513 2.18303 0.601568 2.34491C0.668622 2.5068 0.766905 2.65389 0.890807 2.77779Z" fill="#1C96F9" stroke="#1C96F9"/>
</svg>
