<svg width="130" height="130" viewBox="0 0 130 130" fill="none" xmlns="http://www.w3.org/2000/svg">
<path fill-rule="evenodd" clip-rule="evenodd" d="M65.0002 113.75C91.9237 113.75 113.75 91.9232 113.75 64.9997C113.75 38.0761 91.9237 16.2497 65.0002 16.2497C38.0766 16.2497 16.2502 38.0761 16.2502 64.9997C16.2502 91.9232 38.0766 113.75 65.0002 113.75ZM65.0002 119.166C94.9164 119.166 119.167 94.9159 119.167 64.9997C119.167 35.0834 94.9164 10.833 65.0002 10.833C35.0839 10.833 10.8335 35.0834 10.8335 64.9997C10.8335 94.9159 35.0839 119.166 65.0002 119.166Z" fill="#1C96F9"/>
<path d="M32.5 96.4973C32.5 93.6996 34.5908 91.3352 37.375 91.0265C58.2698 88.7136 71.825 88.9221 92.6738 91.0779C93.7149 91.1873 94.7016 91.5974 95.5135 92.2583C96.3253 92.9192 96.9271 93.8022 97.2454 94.7995C97.5636 95.7968 97.5846 96.8652 97.3056 97.8742C97.0267 98.8832 96.4599 99.7891 95.6746 100.481C71.0694 121.929 57.0077 121.633 34.2333 100.503C33.1229 99.4738 32.5 98.0113 32.5 96.5V96.4973Z" fill="#1C96F9"/>
<path fill-rule="evenodd" clip-rule="evenodd" d="M92.3951 93.7707C71.7116 91.6311 58.3514 91.4307 37.6705 93.7192C36.9898 93.7986 36.3622 94.1262 35.908 94.6394C35.4537 95.1526 35.2047 95.8153 35.2087 96.5007C35.2087 97.2753 35.531 98.0092 36.0753 98.5184C47.3637 108.989 55.9166 113.72 64.2772 113.75C72.6676 113.78 81.681 109.086 93.8955 98.4426C94.2836 98.0972 94.5629 97.6465 94.6996 97.1453C94.8363 96.6442 94.8245 96.114 94.6656 95.6195C94.5067 95.1249 94.2075 94.6871 93.8044 94.3594C93.4013 94.0317 92.9117 93.8281 92.3951 93.7734V93.7707ZM37.0774 88.3351C58.1916 85.9978 71.9445 86.209 92.9557 88.3838C94.522 88.5473 96.0066 89.1639 97.2278 90.1581C98.449 91.1524 99.3538 92.4811 99.8314 93.9816C100.309 95.4822 100.339 97.0894 99.9172 98.6067C99.4955 100.124 98.6405 101.485 97.457 102.524C85.0664 113.325 74.7476 119.207 64.261 119.167C53.7445 119.129 43.8808 113.146 32.3947 102.489C31.5723 101.723 30.9168 100.795 30.4689 99.7647C30.0211 98.7339 29.7907 97.6219 29.792 96.498C29.7881 94.4787 30.5292 92.529 31.8735 91.0223C33.2178 89.5156 35.0708 88.5578 37.0774 88.3324V88.3351Z" fill="#1C96F9"/>
<path d="M86.6668 54.1667C86.6668 59.913 84.3841 65.424 80.3208 69.4873C76.2575 73.5506 70.7465 75.8333 65.0002 75.8333C59.2538 75.8333 53.7428 73.5506 49.6795 69.4873C45.6162 65.424 43.3335 59.913 43.3335 54.1667C43.3335 48.4203 45.6162 42.9093 49.6795 38.846C53.7428 34.7827 59.2538 32.5 65.0002 32.5C70.7465 32.5 76.2575 34.7827 80.3208 38.846C84.3841 42.9093 86.6668 48.4203 86.6668 54.1667Z" fill="#1C96F9"/>
<path fill-rule="evenodd" clip-rule="evenodd" d="M65.0002 70.4167C69.3099 70.4167 73.4432 68.7046 76.4907 65.6572C79.5381 62.6097 81.2502 58.4764 81.2502 54.1667C81.2502 49.8569 79.5381 45.7236 76.4907 42.6762C73.4432 39.6287 69.3099 37.9167 65.0002 37.9167C60.6904 37.9167 56.5571 39.6287 53.5097 42.6762C50.4622 45.7236 48.7502 49.8569 48.7502 54.1667C48.7502 58.4764 50.4622 62.6097 53.5097 65.6572C56.5571 68.7046 60.6904 70.4167 65.0002 70.4167ZM65.0002 75.8333C70.7465 75.8333 76.2575 73.5506 80.3208 69.4873C84.3841 65.424 86.6668 59.913 86.6668 54.1667C86.6668 48.4203 84.3841 42.9093 80.3208 38.846C76.2575 34.7827 70.7465 32.5 65.0002 32.5C59.2538 32.5 53.7428 34.7827 49.6795 38.846C45.6162 42.9093 43.3335 48.4203 43.3335 54.1667C43.3335 59.913 45.6162 65.424 49.6795 69.4873C53.7428 73.5506 59.2538 75.8333 65.0002 75.8333Z" fill="#1C96F9"/>
</svg>
