<svg width="360" height="500" viewBox="0 0 360 500" fill="none" xmlns="http://www.w3.org/2000/svg">
<g filter="url(#filter0_d_1097_6988)">
<path d="M57.4419 458.007C35.6064 458.007 25.3309 434.826 25.3309 434.826C25.3309 434.826 24.2987 451.906 13.4597 451.906C2.62074 451.906 -1 443.366 -1 443.366V-119H359V443C359 443 349.374 460.214 337.664 460.447C326.996 460.659 316.53 447.026 316.53 447.026C316.53 447.026 314.608 496.991 280.292 491.558C245.975 486.125 246.081 447.026 246.081 447.026C246.081 447.026 235.979 458.007 219.923 458.007C203.868 458.007 198.73 438.204 198.73 438.204C198.73 438.204 186.976 460.447 168.528 460.447C150.079 460.447 143.099 447.026 143.099 447.026C143.099 447.026 146.09 483.5 118.168 483.5C90.2458 483.5 84.2625 438.204 84.2625 438.204C84.2625 438.204 74.8301 458.007 57.4419 458.007Z" fill="white"/>
</g>
<defs>
<filter id="filter0_d_1097_6988" x="-5" y="-119" width="368" height="618.971" filterUnits="userSpaceOnUse" color-interpolation-filters="sRGB">
<feFlood flood-opacity="0" result="BackgroundImageFix"/>
<feColorMatrix in="SourceAlpha" type="matrix" values="0 0 0 0 0 0 0 0 0 0 0 0 0 0 0 0 0 0 127 0" result="hardAlpha"/>
<feOffset dy="4"/>
<feGaussianBlur stdDeviation="2"/>
<feComposite in2="hardAlpha" operator="out"/>
<feColorMatrix type="matrix" values="0 0 0 0 0 0 0 0 0 0 0 0 0 0 0 0 0 0 0.25 0"/>
<feBlend mode="normal" in2="BackgroundImageFix" result="effect1_dropShadow_1097_6988"/>
<feBlend mode="normal" in="SourceGraphic" in2="effect1_dropShadow_1097_6988" result="shape"/>
</filter>
</defs>
</svg>
