<svg width="360" height="800" viewBox="0 0 360 800" fill="none" xmlns="http://www.w3.org/2000/svg">
<g filter="url(#filter0_d_593_6461)">
<path d="M58.4419 500.507C36.6064 500.507 26.3309 477.326 26.3309 477.326C26.3309 477.326 25.2987 494.406 14.4597 494.406C3.62074 494.406 0 485.866 0 485.866V-259H360V485.5C360 485.5 350.374 502.714 338.664 502.947C327.996 503.159 317.53 489.526 317.53 489.526C317.53 489.526 315.608 539.491 281.292 534.058C246.975 528.625 247.081 489.526 247.081 489.526C247.081 489.526 236.979 500.507 220.923 500.507C204.868 500.507 199.73 480.704 199.73 480.704C199.73 480.704 187.976 502.947 169.528 502.947C151.079 502.947 144.099 489.526 144.099 489.526C144.099 489.526 147.09 526 119.168 526C91.2458 526 85.2625 480.704 85.2625 480.704C85.2625 480.704 75.8301 500.507 58.4419 500.507Z" fill="white"/>
</g>
<defs>
<filter id="filter0_d_593_6461" x="-4" y="-259" width="368" height="801.471" filterUnits="userSpaceOnUse" color-interpolation-filters="sRGB">
<feFlood flood-opacity="0" result="BackgroundImageFix"/>
<feColorMatrix in="SourceAlpha" type="matrix" values="0 0 0 0 0 0 0 0 0 0 0 0 0 0 0 0 0 0 127 0" result="hardAlpha"/>
<feOffset dy="4"/>
<feGaussianBlur stdDeviation="2"/>
<feComposite in2="hardAlpha" operator="out"/>
<feColorMatrix type="matrix" values="0 0 0 0 0 0 0 0 0 0 0 0 0 0 0 0 0 0 0.25 0"/>
<feBlend mode="normal" in2="BackgroundImageFix" result="effect1_dropShadow_593_6461"/>
<feBlend mode="normal" in="SourceGraphic" in2="effect1_dropShadow_593_6461" result="shape"/>
</filter>
</defs>
</svg>
