<svg width="360" height="800" viewBox="0 0 360 800" fill="none" xmlns="http://www.w3.org/2000/svg">
<g filter="url(#filter0_d_594_6467)">
<path d="M58.4419 366.507C36.6064 366.507 26.3309 343.326 26.3309 343.326C26.3309 343.326 25.2987 360.406 14.4597 360.406C3.62074 360.406 0 351.866 0 351.866V-393H360V351.5C360 351.5 350.374 368.714 338.664 368.947C327.996 369.159 317.53 355.526 317.53 355.526C317.53 355.526 315.608 405.491 281.292 400.058C246.975 394.625 247.081 355.526 247.081 355.526C247.081 355.526 236.979 366.507 220.923 366.507C204.868 366.507 199.73 346.704 199.73 346.704C199.73 346.704 187.976 368.947 169.528 368.947C151.079 368.947 144.099 355.526 144.099 355.526C144.099 355.526 147.09 392 119.168 392C91.2458 392 85.2625 346.704 85.2625 346.704C85.2625 346.704 75.8301 366.507 58.4419 366.507Z" fill="white"/>
</g>
<defs>
<filter id="filter0_d_594_6467" x="-4" y="-393" width="368" height="801.471" filterUnits="userSpaceOnUse" color-interpolation-filters="sRGB">
<feFlood flood-opacity="0" result="BackgroundImageFix"/>
<feColorMatrix in="SourceAlpha" type="matrix" values="0 0 0 0 0 0 0 0 0 0 0 0 0 0 0 0 0 0 127 0" result="hardAlpha"/>
<feOffset dy="4"/>
<feGaussianBlur stdDeviation="2"/>
<feComposite in2="hardAlpha" operator="out"/>
<feColorMatrix type="matrix" values="0 0 0 0 0 0 0 0 0 0 0 0 0 0 0 0 0 0 0.25 0"/>
<feBlend mode="normal" in2="BackgroundImageFix" result="effect1_dropShadow_594_6467"/>
<feBlend mode="normal" in="SourceGraphic" in2="effect1_dropShadow_594_6467" result="shape"/>
</filter>
</defs>
</svg>
