<svg width="17" height="18" viewBox="0 0 17 18" fill="none" xmlns="http://www.w3.org/2000/svg">
<path d="M12.9583 3.10785V3.60785H13.4583H16.2917C16.4268 3.60785 16.5 3.70691 16.5 3.78785V4.13785H15.4859H15.0099L14.9865 4.61328L14.4398 15.727L14.4398 15.7273C14.4182 16.17 14.0331 16.5479 13.5247 16.5479H3.47526C2.96917 16.5479 2.58175 16.1679 2.56021 15.7272L2.5602 15.727L2.01346 4.61328L1.99007 4.13785H1.51406H0.5V3.78785C0.5 3.70691 0.573245 3.60785 0.708333 3.60785H3.54167H4.04167V3.10785V1.40785C4.04167 0.95291 4.43366 0.547852 4.95833 0.547852H12.0417C12.5663 0.547852 12.9583 0.95291 12.9583 1.40785V3.10785ZM11.8646 3.60785H12.3646V3.10785V1.57785V1.07785H11.8646H5.13542H4.63542V1.57785V3.10785V3.60785H5.13542H11.8646Z" fill="#ADA28F" stroke="white"/>
</svg>
