<svg width="360" height="51" viewBox="0 0 360 51" fill="none" xmlns="http://www.w3.org/2000/svg">
<path d="M0 26L360 26" stroke="white" stroke-width="7"/>
<circle cx="287" cy="26" r="25" fill="white"/>
<circle cx="75" cy="25" r="25" fill="white"/>
<circle cx="75" cy="25" r="23" fill="#1C96F9"/>
<circle cx="181" cy="26" r="25" fill="white"/>
<circle cx="181" cy="26" r="23" fill="#F8C52D"/>
<circle cx="287" cy="26" r="23" fill="white"/>
<circle cx="287" cy="26" r="23" fill="#F82F40"/>
<rect x="106" y="24" width="128" height="4" rx="2" fill="#F8C52D"/>
<rect x="231" y="24" width="127" height="4" rx="2" fill="#F82F40"/>
<rect x="2" y="24" width="128" height="4" rx="2" fill="#1C96F9"/>
<rect x="62.7255" y="14.4414" width="9.27027" height="7.10811" rx="1.5" fill="#8DCAFC" stroke="white"/>
<rect x="77.3201" y="14.4414" width="9.27027" height="7.10811" rx="1.5" fill="#8DCAFC" stroke="white"/>
<rect x="58.4417" y="18.9414" width="32" height="15" rx="2" fill="#1C96F9"/>
<rect x="58.4417" y="19.8872" width="27.027" height="12.973" rx="1" fill="#31A7FB"/>
<rect x="58.9417" y="19.3062" width="31.4324" height="14.1351" rx="1.5" stroke="white"/>
<rect x="279.25" y="12.9933" width="9.27027" height="7.10811" rx="1.5" transform="rotate(19.99 279.25 12.9933)" fill="#FB8189" stroke="white"/>
<rect x="292.966" y="17.9826" width="9.27027" height="7.10811" rx="1.5" transform="rotate(19.99 292.966 17.9826)" fill="#FB8189" stroke="white"/>
<rect x="273.686" y="15.7578" width="32" height="15" rx="2" transform="rotate(19.99 273.686 15.7578)" fill="#F82F40"/>
<rect x="273.363" y="16.647" width="27.027" height="12.973" rx="1" transform="rotate(19.99 273.363 16.647)" fill="#FB4A59"/>
<rect x="274.031" y="16.2717" width="31.4324" height="14.1351" rx="1.5" transform="rotate(19.99 274.031 16.2717)" stroke="white"/>
<rect x="169.24" y="16.7476" width="9.27027" height="7.10811" rx="1.5" fill="#FDE784" stroke="white"/>
<rect x="183.835" y="16.7476" width="9.27027" height="7.10811" rx="1.5" fill="#FDE784" stroke="white"/>
<rect x="166.836" y="20.564" width="32" height="15" rx="2" fill="#F8C52D"/>
<rect x="164.956" y="22.1934" width="27.027" height="12.973" rx="1" fill="#FDD330"/>
<rect x="165.456" y="21.6123" width="31.4324" height="14.1351" rx="1.5" stroke="white"/>
</svg>
