<svg width="30" height="30" viewBox="0 0 30 30" fill="none" xmlns="http://www.w3.org/2000/svg">
<path d="M1.85302 4.77222L1.85309 4.77229L12.0832 15.0004L1.85309 25.2284L1.85302 25.2285C1.66137 25.4202 1.50935 25.6477 1.40564 25.8981C1.30192 26.1485 1.24854 26.4168 1.24854 26.6879C1.24854 26.9589 1.30192 27.2273 1.40564 27.4777C1.50935 27.7281 1.66137 27.9556 1.85302 28.1472C2.04467 28.3389 2.27218 28.4909 2.52258 28.5946C2.77298 28.6983 3.04135 28.7517 3.31238 28.7517C3.58341 28.7517 3.85178 28.6983 4.10218 28.5946C4.35257 28.4909 4.58009 28.3389 4.77173 28.1472L4.7718 28.1472L14.9999 17.9171L25.228 28.1472L25.228 28.1472C25.4197 28.3389 25.6472 28.4909 25.8976 28.5946C26.148 28.6983 26.4163 28.7517 26.6874 28.7517C26.9584 28.7517 27.2268 28.6983 27.4772 28.5946C27.7276 28.4909 27.9551 28.3389 28.1467 28.1472C28.3384 27.9556 28.4904 27.7281 28.5941 27.4777C28.6978 27.2273 28.7512 26.9589 28.7512 26.6879C28.7512 26.4168 28.6978 26.1485 28.5941 25.8981C28.4904 25.6477 28.3384 25.4202 28.1467 25.2285L28.1467 25.2284L17.9166 15.0004L28.1467 4.77229L28.1467 4.77222C28.3384 4.58058 28.4904 4.35306 28.5941 4.10266C28.6978 3.85227 28.7512 3.58389 28.7512 3.31287C28.7512 3.04184 28.6978 2.77346 28.5941 2.52307C28.4904 2.27267 28.3384 2.04516 28.1467 1.85351C27.9551 1.66186 27.7276 1.50984 27.4772 1.40612C27.2268 1.30241 26.9584 1.24902 26.6874 1.24902C26.4163 1.24902 26.148 1.30241 25.8976 1.40612C25.6472 1.50984 25.4197 1.66186 25.228 1.85351L25.228 1.85358L14.9999 12.0836L4.7718 1.85358L4.77173 1.85351C4.58009 1.66186 4.35257 1.50984 4.10218 1.40612C3.85178 1.30241 3.58341 1.24902 3.31238 1.24902C3.04135 1.24902 2.77298 1.30241 2.52258 1.40612C2.27218 1.50984 2.04467 1.66186 1.85302 1.85351C1.66137 2.04516 1.50935 2.27267 1.40564 2.52307C1.30192 2.77346 1.24854 3.04184 1.24854 3.31287C1.24854 3.58389 1.30192 3.85227 1.40564 4.10266C1.50935 4.35306 1.66137 4.58058 1.85302 4.77222Z" fill="#46AD4C" stroke="#46AD4C" stroke-width="2"/>
</svg>
